<svg width="527" height="200" viewBox="0 0 527 200" fill="none" xmlns="http://www.w3.org/2000/svg">
<path d="M155.808 186.708H151V184.969H162.612V186.708H157.803V198.984H155.808V186.708Z" fill="#3D363F"/>
<path d="M166.806 184.969H168.801V198.984H166.806V184.969Z" fill="#3D363F"/>
<path d="M185.17 197.245V198.984H174.99V184.969H184.914V186.708H177.036V191.004H184.095V192.692H177.036V197.245H185.17Z" fill="#3D363F"/>
<path d="M202.51 184.969V198.984H200.873L192.433 188.498V198.984H190.438V184.969H192.075L200.515 195.455V184.969H202.51Z" fill="#3D363F"/>
<path d="M208.7 184.969H214.633C216.117 184.969 217.447 185.275 218.572 185.838C219.697 186.401 220.618 187.27 221.232 188.293C221.846 189.368 222.204 190.595 222.204 191.976C222.204 193.357 221.897 194.585 221.232 195.659C220.618 196.733 219.697 197.552 218.572 198.115C217.447 198.677 216.117 198.984 214.633 198.984H208.7V184.969ZM214.531 197.245C215.656 197.245 216.679 197.04 217.549 196.58C218.419 196.12 219.084 195.506 219.544 194.739C220.004 193.92 220.26 192.999 220.26 191.976C220.26 190.953 220.004 190.033 219.544 189.214C219.084 188.396 218.419 187.782 217.549 187.373C216.679 186.912 215.708 186.708 214.531 186.708H210.746V197.245H214.531Z" fill="#3D363F"/>
<path d="M236.015 195.506H228.547L227.012 199.035H224.966L231.309 185.02H233.304L239.698 199.035H237.601L236.015 195.506ZM235.299 193.869L232.281 187.015L229.263 193.869H235.299Z" fill="#3D363F"/>
<path d="M263.228 184.969V198.984H261.233V192.744H253.151V198.984H251.156V184.969H253.151V191.004H261.233V184.969H263.228Z" fill="#3D363F"/>
<path d="M271.924 198.217C270.798 197.603 269.878 196.734 269.264 195.659C268.599 194.585 268.292 193.357 268.292 191.976C268.292 190.595 268.599 189.419 269.264 188.293C269.929 187.219 270.798 186.35 271.924 185.736C273.049 185.122 274.328 184.815 275.76 184.815C277.141 184.815 278.42 185.122 279.545 185.736C280.671 186.35 281.592 187.219 282.205 188.293C282.87 189.368 283.177 190.595 283.177 191.976C283.177 193.357 282.87 194.585 282.205 195.659C281.54 196.734 280.671 197.603 279.545 198.217C278.42 198.831 277.141 199.138 275.76 199.138C274.328 199.189 273.049 198.831 271.924 198.217ZM278.522 196.682C279.341 196.222 280.006 195.557 280.466 194.739C280.927 193.92 281.182 192.999 281.182 191.976C281.182 190.953 280.927 190.033 280.466 189.214C280.006 188.396 279.341 187.731 278.522 187.27C277.704 186.81 276.783 186.554 275.76 186.554C274.737 186.554 273.816 186.81 272.947 187.27C272.128 187.731 271.463 188.396 271.003 189.214C270.543 190.033 270.287 190.953 270.287 191.976C270.287 192.999 270.543 193.92 271.003 194.739C271.463 195.557 272.128 196.222 272.947 196.682C273.765 197.143 274.737 197.398 275.76 197.398C276.783 197.398 277.704 197.143 278.522 196.682Z" fill="#3D363F"/>
<path d="M288.292 184.969H290.287V197.245H297.858V198.984H288.241V184.969H288.292Z" fill="#3D363F"/>
<path d="M304.405 181.234H306.861L303.485 183.843H301.694L304.405 181.234ZM302.155 184.968H304.15V198.984H302.155V184.968Z" fill="#3D363F"/>
<path d="M311.413 198.677C310.441 198.37 309.674 197.91 309.111 197.399L309.879 195.813C310.39 196.273 311.106 196.682 311.925 196.989C312.743 197.296 313.613 197.45 314.482 197.45C315.659 197.45 316.528 197.245 317.091 196.836C317.654 196.427 317.961 195.915 317.961 195.25C317.961 194.79 317.807 194.381 317.5 194.074C317.193 193.767 316.784 193.562 316.324 193.358C315.863 193.204 315.198 192.999 314.38 192.795C313.306 192.539 312.487 192.283 311.822 192.028C311.157 191.772 310.595 191.363 310.134 190.851C309.674 190.34 309.418 189.623 309.418 188.703C309.418 187.935 309.623 187.27 310.032 186.657C310.441 186.043 311.004 185.582 311.822 185.224C312.641 184.866 313.613 184.662 314.789 184.662C315.608 184.662 316.426 184.764 317.245 184.969C318.063 185.173 318.728 185.48 319.291 185.889L318.626 187.475C318.063 187.117 317.398 186.81 316.733 186.605C316.068 186.401 315.403 186.299 314.789 186.299C313.664 186.299 312.794 186.503 312.232 186.912C311.669 187.322 311.362 187.884 311.362 188.498C311.362 188.958 311.515 189.368 311.822 189.675C312.129 189.982 312.539 190.186 312.999 190.391C313.459 190.544 314.124 190.749 314.943 190.902C316.017 191.158 316.835 191.414 317.5 191.67C318.165 191.925 318.677 192.335 319.137 192.846C319.598 193.358 319.853 194.074 319.853 194.943C319.853 195.659 319.649 196.376 319.239 196.938C318.83 197.552 318.216 198.012 317.398 198.37C316.58 198.729 315.556 198.882 314.38 198.882C313.408 199.189 312.436 198.984 311.413 198.677Z" fill="#3D363F"/>
<path d="M327.424 186.708H322.615V184.969H334.227V186.708H329.419V198.984H327.424V186.708Z" fill="#3D363F"/>
<path d="M338.422 184.969H340.416V198.984H338.422V184.969Z" fill="#3D363F"/>
<path d="M349.112 198.217C347.987 197.603 347.117 196.734 346.452 195.659C345.787 194.585 345.48 193.357 345.48 191.976C345.48 190.595 345.787 189.368 346.452 188.293C347.117 187.219 347.987 186.35 349.112 185.736C350.238 185.122 351.516 184.815 352.898 184.815C353.972 184.815 354.995 185.02 355.916 185.378C356.836 185.736 357.604 186.298 358.217 187.015L356.939 188.293C355.864 187.168 354.586 186.605 353 186.605C351.977 186.605 351.005 186.861 350.186 187.322C349.368 187.782 348.703 188.447 348.192 189.265C347.731 190.084 347.475 191.004 347.475 192.028C347.475 193.051 347.731 193.971 348.192 194.79C348.652 195.608 349.317 196.273 350.186 196.734C351.056 197.194 351.977 197.45 353 197.45C354.586 197.45 355.864 196.887 356.939 195.762L358.217 197.04C357.552 197.757 356.785 198.319 355.864 198.677C354.944 199.035 353.921 199.24 352.846 199.24C351.516 199.189 350.238 198.831 349.112 198.217Z" fill="#3D363F"/>
<path d="M371.722 195.506H364.253L362.719 199.035H360.673L367.016 185.02H369.011L375.405 199.035H373.307L371.722 195.506ZM371.005 193.869L367.987 187.015L364.97 193.869H371.005Z" fill="#3D363F"/>
<path d="M7.97974 116.067C6.85439 116.067 1.0742 116.118 0.0511524 116.271L0.102304 116.527C1.12535 116.578 2.09724 117.192 2.14839 119.238C2.353 123.586 2.30185 128.19 2.30185 138.88C2.30185 149.725 2.353 154.021 2.14839 158.523C2.09724 160.518 0.920739 161.029 0 161.49L0.0511524 161.745C1.0742 161.541 2.96683 161.49 4.04102 161.49C5.06406 161.49 6.95669 161.541 7.97974 161.745L8.03089 161.49C7.11015 161.029 5.9848 160.518 5.8825 158.523C5.67789 154.021 5.72904 152.385 5.72904 141.643C6.49632 141.643 7.11015 141.694 7.87743 141.694C19.6424 141.694 27.2641 137.295 27.2641 128.19C27.3664 121.744 21.5862 116.067 7.97974 116.067ZM9.05393 140.364C7.92858 140.364 6.90554 140.313 5.8825 140.21C5.8825 131.259 5.83135 121.182 6.03596 117.141C17.2894 117.141 23.6323 119.136 23.6323 128.19C23.5812 135.556 19.2844 140.364 9.05393 140.364Z" fill="#130830"/>
<path d="M48.2365 160.415C45.9858 160.415 43.7351 160.415 41.5356 160.364C41.331 155.965 41.3821 149.52 41.3821 138.88V138.727C58.1089 138.727 58.3135 138.983 59.2342 140.978L59.49 140.926C59.2854 139.903 59.2854 139.29 59.2854 138.164C59.2854 137.039 59.2854 136.527 59.49 135.453L59.2342 135.402C58.4669 137.141 58.0577 137.653 41.3821 137.653C41.3821 127.525 41.331 121.642 41.5356 117.345C43.8886 117.192 46.2416 117.141 48.4923 117.141C54.5794 117.141 59.9503 117.806 63.3264 120.67L63.6845 120.414C63.3264 119.749 62.5591 116.885 62.5591 116.22H39.6941C38.5687 116.22 36.7273 116.169 35.7042 115.964L35.6531 116.322C36.5738 116.783 37.6992 117.294 37.8015 119.238C38.0061 123.637 37.9549 128.292 37.9549 138.932C37.9549 149.52 38.0061 154.175 37.8015 158.574C37.7503 160.569 36.5738 161.08 35.6531 161.541L35.7042 161.797C36.7273 161.592 38.6199 161.541 39.6941 161.541H64.9121C64.9121 160.774 66.6513 157.909 66.9582 157.039L66.6001 156.835C62.508 159.904 55.6024 160.415 48.2365 160.415Z" fill="#130830"/>
<path d="M70.8457 116.271C70.8457 116.834 70.0784 119.698 69.7203 120.414L70.0784 120.67C74.1194 117.959 78.2627 117.294 84.2987 117.294C85.3217 117.294 86.2425 117.345 87.2655 117.345V138.829V149.111C87.2655 153.152 87.3167 155.812 87.1121 158.472C87.0609 160.467 85.9867 160.978 84.9637 161.438L85.0148 161.694C86.0379 161.49 87.9305 161.438 89.0047 161.438C90.0789 161.438 91.9204 161.49 92.9434 161.694L92.9946 161.438C92.0738 160.978 90.9996 160.467 90.9485 158.472C90.7439 155.761 90.795 153.152 90.795 149.111V138.829V117.345C91.8181 117.345 92.79 117.294 93.7107 117.294C99.6955 117.294 103.839 117.959 107.982 120.67L108.34 120.414C107.982 119.801 107.164 116.834 107.164 116.271H70.8457Z" fill="#130830"/>
<path d="M144.249 160.722C141.487 160.722 139.083 156.17 136.372 151.259C133.456 146.144 130.284 140.415 126.039 139.545C133.558 138.42 139.696 134.839 139.696 127.422C139.696 121.131 134.325 116.067 121.793 116.067C120.668 116.067 114.888 116.118 113.865 116.271L113.916 116.527C114.939 116.578 115.911 117.192 115.962 119.238C116.166 123.586 116.115 128.19 116.115 138.88C116.115 149.725 116.166 154.021 115.962 158.523C115.911 160.518 114.734 161.029 113.813 161.49L113.865 161.745C114.888 161.541 116.78 161.49 117.854 161.49C118.878 161.49 120.77 161.541 121.793 161.745L121.844 161.49C120.924 161.029 119.798 160.518 119.696 158.523C119.491 154.124 119.543 150.594 119.543 139.903C120.924 139.955 122.305 139.903 123.686 139.852C124.249 139.852 124.811 140.006 125.425 140.21C129.006 141.54 130.847 146.297 132.893 151.055C135.093 156.579 137.292 162.155 141.436 162.155C143.021 162.155 143.789 161.95 145.067 161.029L144.914 160.62C144.658 160.62 144.402 160.722 144.249 160.722ZM122.56 138.573C121.537 138.573 120.566 138.522 119.645 138.42C119.645 129.315 119.594 121.233 119.798 117.141C130.336 117.141 135.911 119.596 135.911 127.422C135.911 134.021 132.126 138.573 122.56 138.573Z" fill="#130830"/>
<path d="M158.725 116.271L158.674 115.913C157.651 116.118 155.758 116.169 154.735 116.169C153.61 116.169 151.769 116.118 150.745 115.913L150.694 116.271C151.615 116.732 152.74 117.243 152.843 119.187C153.047 123.586 152.996 128.241 152.996 138.88C152.996 149.469 153.047 154.124 152.843 158.523C152.792 160.518 151.615 161.029 150.694 161.49L150.745 161.745C151.769 161.541 153.661 161.49 154.735 161.49C155.758 161.49 157.651 161.541 158.674 161.745L158.725 161.49C157.804 161.029 156.679 160.518 156.577 158.523C156.372 154.124 156.423 149.469 156.423 138.88C156.423 128.19 156.372 123.586 156.577 119.187C156.628 117.192 157.804 116.732 158.725 116.271Z" fill="#130830"/>
<path d="M193.662 161.49C182.357 161.49 173.252 152.947 173.252 138.88C173.252 124.814 182.357 116.22 193.662 116.22C201.233 116.22 208.343 118.675 211.668 125.683L212.077 125.53L211.821 121.591C207.524 117.09 200.516 114.839 193.713 114.839C180.414 114.839 169.109 124.302 169.109 138.88C169.109 153.459 180.414 162.871 193.713 162.871C201.642 162.871 207.729 159.955 212.128 155.3L212.384 152.538L211.975 152.333C207.166 158.727 202.256 161.49 193.662 161.49Z" fill="#130830"/>
<path d="M244.917 114.788C231.617 114.788 220.568 124.251 220.568 138.829C220.568 153.356 231.617 162.871 244.917 162.871C258.165 162.871 269.163 153.356 269.163 138.829C269.214 124.251 258.165 114.788 244.917 114.788ZM244.917 161.49C233.612 161.49 224.507 152.947 224.507 138.88C224.507 124.814 233.612 116.271 244.917 116.271C256.17 116.271 265.326 124.814 265.326 138.88C265.326 152.947 256.17 161.49 244.917 161.49Z" fill="#130830"/>
<path d="M309.931 160.722C307.169 160.722 304.765 156.17 302.053 151.259C299.138 146.144 295.966 140.415 291.721 139.545C299.24 138.42 305.378 134.839 305.378 127.422C305.378 121.131 300.007 116.067 287.475 116.067C286.35 116.067 280.57 116.118 279.547 116.271L279.598 116.527C280.621 116.578 281.593 117.192 281.644 119.238C281.848 123.586 281.797 128.19 281.797 138.88C281.797 149.725 281.848 154.021 281.644 158.523C281.593 160.518 280.416 161.029 279.495 161.49L279.547 161.745C280.57 161.541 282.462 161.49 283.536 161.49C284.559 161.49 286.452 161.541 287.475 161.745L287.526 161.49C286.606 161.029 285.48 160.518 285.378 158.523C285.173 154.124 285.224 150.594 285.224 139.903C286.606 139.955 287.987 139.903 289.368 139.852C289.93 139.852 290.493 140.006 291.107 140.21C294.688 141.54 296.529 146.297 298.575 151.055C300.775 156.579 302.974 162.155 307.118 162.155C308.703 162.155 309.471 161.95 310.749 161.029L310.698 160.569C310.34 160.62 310.084 160.722 309.931 160.722ZM288.191 138.573C287.168 138.573 286.196 138.522 285.276 138.42C285.276 129.315 285.224 121.233 285.429 117.141C295.966 117.141 301.542 119.596 301.542 127.422C301.593 134.021 297.808 138.573 288.191 138.573Z" fill="#130830"/>
<path d="M425.637 116.271L425.586 115.913C425.126 116.118 423.642 116.169 422.363 116.169C421.238 116.22 420.317 116.169 419.755 116.118C417.913 120.517 414.435 128.087 409.422 138.88C405.227 147.627 403.795 151.515 401.545 156.119C399.345 151.515 398.578 149.315 393.616 138.88C388.603 128.036 385.125 120.619 383.283 116.118C382.516 116.169 381.493 116.169 380.316 116.169C378.935 116.169 377.708 116.118 376.94 115.913L376.889 116.271C377.81 116.732 378.935 117.243 379.038 119.187C379.242 123.586 379.191 128.241 379.191 138.88C379.191 149.469 378.986 154.124 378.782 158.523C378.731 160.518 377.554 161.029 376.633 161.49L376.685 161.745C377.708 161.541 378.731 161.49 379.856 161.49C380.879 161.49 381.902 161.541 382.976 161.745L383.027 161.49C382.107 161.029 380.981 160.518 380.879 158.523C380.674 154.124 380.47 149.469 380.47 138.88C380.47 128.599 380.419 123.842 380.419 119.391C380.623 119.749 380.828 120.005 380.981 120.363C383.181 124.762 384.767 128.241 389.728 138.88C394.741 149.622 398.015 156.374 399.856 160.774H400.828C402.67 156.374 405.841 149.622 410.905 138.88C415.458 129.008 417.606 124.046 419.806 119.647C419.806 123.995 419.959 128.445 419.959 138.88C419.959 149.469 420.01 154.124 419.806 158.523C419.755 160.518 418.68 161.029 417.657 161.49L417.709 161.745C418.732 161.541 420.624 161.49 421.698 161.49C422.824 161.49 424.614 161.541 425.637 161.745L425.688 161.49C424.768 161.029 423.693 160.518 423.642 158.523C423.438 154.124 423.489 149.469 423.489 138.88C423.489 128.19 423.438 123.586 423.642 119.187C423.642 117.192 424.716 116.732 425.637 116.271Z" fill="#130830"/>
<path d="M460.318 114.788C447.019 114.788 435.97 124.251 435.97 138.829C435.97 153.356 447.019 162.871 460.318 162.871C473.567 162.871 484.564 153.356 484.564 138.829C484.564 124.251 473.516 114.788 460.318 114.788ZM460.318 161.49C449.014 161.49 439.909 152.947 439.909 138.88C439.909 124.814 449.014 116.271 460.318 116.271C471.572 116.271 480.728 124.814 480.728 138.88C480.728 152.947 471.521 161.49 460.318 161.49Z" fill="#130830"/>
<path d="M526.049 160.569C525.691 160.62 525.435 160.722 525.281 160.722C522.519 160.722 520.115 156.17 517.404 151.259C514.488 146.144 511.317 140.415 507.071 139.545C514.591 138.42 520.729 134.839 520.729 127.422C520.729 121.131 515.358 116.067 502.826 116.067C501.7 116.067 495.92 116.118 494.897 116.271L494.948 116.527C495.971 116.578 496.943 117.192 496.994 119.238C497.199 123.586 497.148 128.19 497.148 138.88C497.148 149.725 497.199 154.021 496.994 158.523C496.943 160.518 495.767 161.029 494.846 161.49L494.897 161.745C495.92 161.541 497.813 161.49 498.887 161.49C499.91 161.49 501.803 161.541 502.826 161.745L502.877 161.49C501.956 161.029 500.831 160.518 500.728 158.523C500.524 154.124 500.575 150.594 500.575 139.903C501.956 139.955 503.337 139.903 504.718 139.852C505.281 139.852 505.844 140.006 506.457 140.21C510.038 141.54 511.88 146.297 513.926 151.055C516.125 156.579 518.325 162.155 522.468 162.155C524.054 162.155 524.821 161.95 526.1 161.029L526.049 160.569ZM503.593 138.573C502.57 138.573 501.598 138.522 500.677 138.42C500.677 129.315 500.626 121.233 500.831 117.141C511.368 117.141 516.944 119.596 516.944 127.422C516.944 134.021 513.158 138.573 503.593 138.573Z" fill="#130830"/>
<path d="M369.063 157.397C366.812 152.896 365.278 149.827 360.316 139.341C355.303 128.855 351.211 120.261 349.369 115.862H348.397C346.556 120.261 342.413 128.906 337.348 139.341C332.387 149.725 330.545 153.561 328.295 157.96C327.272 159.802 326.044 160.978 324.56 161.49L324.612 161.745C325.942 161.541 326.965 161.49 328.346 161.49C329.727 161.49 330.494 161.541 331.568 161.745L331.619 161.49C330.699 161.132 328.857 160.467 329.778 158.523C330.289 157.193 330.852 155.863 331.517 154.431C333.666 151.362 338.013 146.502 344.152 143.638C348.142 141.796 352.592 140.824 357.093 140.875L359.242 145.326L359.855 146.656C362.618 152.231 363.948 155.351 365.38 158.574C366.045 160.569 364.613 161.132 363.59 161.541L363.641 161.797C364.766 161.592 367.068 161.541 368.449 161.541C369.83 161.541 371.672 161.592 373.002 161.797L373.053 161.541C371.825 160.978 370.086 159.392 369.063 157.397ZM343.384 141.898C339.139 143.893 336.274 146.502 334.126 149.06C334.484 148.292 334.893 147.474 335.354 146.604L335.967 145.274C336.786 143.535 337.758 141.643 338.781 139.341C342.975 130.747 345.379 125.12 347.579 120.517C349.625 125.018 351.313 128.906 356.019 138.676C351.671 138.829 347.323 140.057 343.384 141.898Z" fill="#130830"/>
<path d="M329.113 138.267C320.775 138.267 318.269 135.709 318.269 127.422H317.655C317.655 135.76 315.097 138.267 306.811 138.267V138.88C315.148 138.88 317.655 141.438 317.655 149.725H318.269C318.269 141.387 320.826 138.88 329.113 138.88V138.267Z" fill="#130830"/>
<path d="M295.645 62.4818C293.697 61.1524 291.492 60.3854 288.98 59.9764L310 23.6735H302.053C284.776 23.6735 279.496 18.4071 279.496 1.17601C279.496 0.511305 278.983 0 278.316 0C277.65 0 277.137 0.511305 277.137 1.17601C277.137 18.4071 271.857 23.6735 254.579 23.6735H217L241.557 66.1121C232.688 65.8564 224.895 62.4307 219.871 51.2842C219.871 51.2842 219.871 51.233 219.82 51.233C219.82 51.1819 219.768 51.1819 219.768 51.1308L219.717 51.0796C219.666 51.0796 219.666 51.0285 219.615 51.0285H219.563C219.512 51.0285 219.512 51.0285 219.461 51.0285C219.41 51.0285 219.41 51.0285 219.358 51.0285H219.307C219.307 51.0285 219.307 51.0285 219.256 51.0285C219.256 51.0285 219.256 51.0285 219.205 51.0285L219.153 51.0796C219.102 51.0796 219.102 51.1308 219.102 51.1308L219.051 51.1819C219.051 51.233 218.999 51.233 218.999 51.2842C218.999 51.3353 218.999 51.3353 218.999 51.3864C218.999 51.4376 218.999 51.4376 218.999 51.4887C218.999 51.5398 218.999 51.5398 218.999 51.591V51.6421C223.562 66.6745 232.893 70.3048 243.711 69.8446L263.5 104L287.288 62.942C294.209 63.2999 299.336 66.2144 301.387 74.4976C301.387 74.5487 301.387 74.5487 301.438 74.5487C301.438 74.5998 301.438 74.5998 301.49 74.5998C301.49 74.6509 301.541 74.6509 301.541 74.6509L301.592 74.7021C301.643 74.7021 301.643 74.7532 301.695 74.7532H301.746C301.797 74.7532 301.848 74.7532 301.9 74.7532H301.951C301.951 74.7532 302.002 74.7532 302.002 74.7021C302.053 74.7021 302.053 74.7021 302.105 74.6509L302.156 74.5998L302.207 74.5487C302.207 74.4975 302.207 74.4975 302.259 74.4464C302.259 74.3953 302.259 74.3953 302.31 74.3441C302.31 74.293 302.31 74.293 302.31 74.2419C302.31 74.1908 302.31 74.1908 302.31 74.1396C301.233 68.7198 299.029 64.8338 295.645 62.4818ZM278.316 12.6293C280.06 19.3274 283.905 23.1111 290.569 24.8496C283.853 26.588 280.06 30.4228 278.316 37.0698C276.573 30.3717 272.728 26.588 266.063 24.8496C272.728 23.1111 276.522 19.3274 278.316 12.6293ZM254.528 26.0767C271.805 26.0767 277.086 31.3432 277.086 48.5742C277.086 49.2389 277.599 49.7502 278.265 49.7502C278.932 49.7502 279.444 49.2389 279.444 48.5742C279.444 31.3432 284.725 26.0767 302.002 26.0767H305.796L286.314 59.7207C280.367 59.414 273.343 60.8456 266.063 62.3795C258.783 63.9135 251.247 65.8053 244.275 66.061L221.101 26.0256H254.528V26.0767ZM246.377 69.6401C252.785 69.0266 259.655 67.2881 266.268 65.8564C272.882 64.4248 279.137 63.0954 284.52 62.8909L263.5 99.1937L246.377 69.6401Z" fill="#3D363F"/>
</svg>
