<svg width="908" height="899" viewBox="0 0 908 899" fill="none" xmlns="http://www.w3.org/2000/svg">
<path d="M25.7 854.6H8.7V848.4H49.7V854.6H32.7V898H25.7V854.6Z" fill="#F28FC3"/>
<path d="M71.6 848.5H78.7V898H71.6V848.5Z" fill="#F28FC3"/>
<path d="M143.6 891.9V898.1H107.7V848.6H142.7V854.8H114.8V870H139.6V876H114.8V892H143.6V891.9Z" fill="#F28FC3"/>
<path d="M211.8 848.5V898H206L176.3 861.1V898H169.2V848.5H175L204.7 885.4V848.5H211.8Z" fill="#F28FC3"/>
<path d="M240.8 848.5H261.7C266.9 848.5 271.6 849.5 275.6 851.6C279.7 853.7 282.8 856.6 285 860.3C287.2 864.1 288.4 868.4 288.4 873.2C288.4 878.1 287.3 882.4 285 886.1C282.8 889.9 279.6 892.8 275.6 894.8C271.5 896.9 266.9 897.9 261.7 897.9H240.8V848.5ZM261.3 891.9C265.3 891.9 268.8 891.1 271.9 889.6C274.9 888 277.3 885.9 278.9 883.1C280.6 880.3 281.4 877 281.4 873.4C281.4 869.8 280.6 866.5 278.9 863.7C277.2 860.9 274.9 858.7 271.9 857.2C268.9 855.6 265.3 854.9 261.3 854.9H247.9V892.1H261.3V891.9Z" fill="#F28FC3"/>
<path d="M344.3 885.6H318L312.6 898H305.3L327.7 848.5H334.7L357.2 898H349.8L344.3 885.6ZM341.8 880L331.1 855.7L320.4 880H341.8Z" fill="#F28FC3"/>
<path d="M454.5 848.5V898H447.4V875.9H419V898H411.9V848.5H419V869.8H447.4V848.5H454.5Z" fill="#F28FC3"/>
<path d="M492.3 895.3C488.3 893.1 485.1 890.1 482.9 886.2C480.6 882.3 479.5 878 479.5 873.2C479.5 868.4 480.6 864.1 482.9 860.3C485.2 856.4 488.3 853.4 492.3 851.2C496.3 849 500.8 847.9 505.8 847.9C510.8 847.9 515.2 849 519.2 851.2C523.2 853.4 526.3 856.4 528.6 860.3C530.9 864.1 532 868.5 532 873.3C532 878.1 530.9 882.4 528.6 886.3C526.3 890.1 523.2 893.2 519.2 895.4C515.2 897.6 510.7 898.7 505.8 898.7C500.8 898.6 496.3 897.5 492.3 895.3ZM515.6 889.8C518.5 888.1 520.8 885.9 522.5 883C524.2 880.1 525 876.9 525 873.3C525 869.7 524.2 866.5 522.5 863.6C520.8 860.7 518.5 858.4 515.6 856.8C512.7 855.1 509.4 854.3 505.8 854.3C502.2 854.3 498.9 855.1 495.9 856.8C493 858.5 490.6 860.7 489 863.6C487.3 866.5 486.5 869.7 486.5 873.3C486.5 876.9 487.3 880.1 489 883C490.7 885.9 493 888.2 495.9 889.8C498.9 891.5 502.1 892.3 505.8 892.3C509.5 892.3 512.7 891.5 515.6 889.8Z" fill="#F28FC3"/>
<path d="M557.1 848.5H564.2V891.9H591V898.1H557.1V848.5Z" fill="#F28FC3"/>
<path d="M621.1 835.3H629.7L617.8 844.5H611.4L621.1 835.3ZM613.3 848.5H620.4V898H613.3V848.5Z" fill="#F28FC3"/>
<path d="M653 896.9C649.5 895.7 646.8 894.2 644.8 892.4L647.4 886.9C649.3 888.6 651.7 890 654.7 891C657.6 892.1 660.7 892.6 663.8 892.6C667.9 892.6 671 891.9 673 890.5C675 889.1 676 887.3 676 884.9C676 883.2 675.4 881.8 674.3 880.8C673.2 879.7 671.8 878.9 670.2 878.4C668.6 877.8 666.3 877.2 663.3 876.5C659.6 875.6 656.6 874.7 654.3 873.8C652 872.9 650.1 871.5 648.4 869.7C646.8 867.8 646 865.3 646 862.2C646 859.6 646.7 857.2 648.1 855.1C649.5 853 651.6 851.3 654.4 850C657.2 848.7 660.7 848.1 664.9 848.1C667.8 848.1 670.7 848.5 673.5 849.2C676.3 850 678.8 851 680.8 852.5L678.5 858.2C676.4 856.9 674.2 855.9 671.8 855.2C669.4 854.5 667.1 854.2 664.9 854.2C660.9 854.2 657.9 854.9 655.9 856.4C653.9 857.9 652.9 859.8 652.9 862.1C652.9 863.8 653.5 865.2 654.6 866.2C655.7 867.3 657.1 868.1 658.8 868.7C660.5 869.3 662.8 869.9 665.6 870.6C669.3 871.5 672.3 872.4 674.6 873.3C676.9 874.2 678.8 875.6 680.4 877.4C682 879.2 682.8 881.7 682.8 884.8C682.8 887.4 682.1 889.8 680.7 891.9C679.3 894 677.1 895.7 674.3 897C671.4 898.3 667.9 898.9 663.7 898.9C660.1 898.6 656.5 898 653 896.9Z" fill="#F28FC3"/>
<path d="M716.6 854.6H699.6V848.4H740.6V854.6H723.6V898H716.6V854.6Z" fill="#F28FC3"/>
<path d="M762.4 848.5H769.5V898H762.4V848.5Z" fill="#F28FC3"/>
<path d="M807.3 895.3C803.3 893.1 800.2 890.1 797.9 886.2C795.6 882.4 794.5 878 794.5 873.2C794.5 868.4 795.6 864.1 797.9 860.2C800.2 856.4 803.3 853.3 807.3 851.1C811.3 848.9 815.8 847.8 820.7 847.8C824.6 847.8 828.1 848.5 831.3 849.7C834.5 850.9 837.2 852.9 839.5 855.5L834.9 860C831.2 856.1 826.5 854.1 821 854.1C817.3 854.1 814 854.9 811 856.6C808 858.3 805.7 860.5 804 863.4C802.3 866.3 801.5 869.5 801.5 873.1C801.5 876.7 802.3 879.9 804 882.8C805.7 885.7 808 888 811 889.6C814 891.3 817.3 892.1 821 892.1C826.5 892.1 831.2 890.1 834.9 886.2L839.5 890.7C837.2 893.2 834.5 895.2 831.3 896.5C828.1 897.8 824.5 898.5 820.7 898.5C815.7 898.6 811.2 897.5 807.3 895.3Z" fill="#F28FC3"/>
<path d="M894.2 885.6H867.9L862.5 898H855.2L877.6 848.5H884.6L907.1 898H899.6L894.2 885.6ZM891.7 880L881 855.7L870.3 880H891.7Z" fill="#F28FC3"/>
<path d="M15.3 198.1L15.6 199.3C20.1 198.4 28.2 198.1 33 198.1C37.5 198.1 45.6 198.4 50.1 199.3L50.4 198.1C46.5 196 41.4 193.9 41.1 185.2C40.2 165.7 40.5 158.5 40.5 111.8C43.8 111.8 46.5 112.1 49.8 112.1C101.1 112.1 134 92.9 134 53.4C134 25.5 108.8 0.599976 49.8 0.599976C45 0.599976 19.8 0.899969 15.3 1.49997L15.6 2.69997C20.1 2.99997 24.3 5.69997 24.6 14.4C25.5 33.3 25.2 53.4 25.2 99.8C25.2 146.9 25.5 165.7 24.6 185.2C24.3 193.9 19.2 196 15.3 198.1ZM41.1 5.39997C90 5.39997 117.5 14.1 117.5 53.4C117.5 85.5 98.9 106.5 54.3 106.5C49.5 106.5 45 106.2 40.5 105.9C40.5 66.8 40.2 23.1 41.1 5.39997Z" fill="#130830"/>
<path d="M334.5 178.6L333 177.7C315 191.2 285 193.6 253 193.6C243.1 193.6 233.5 193.6 223.9 193.3C223 174.1 223.3 146.2 223.3 99.8V99.2C296.1 99.2 297 100.4 300.9 109.1L302.1 108.8C301.2 104.3 301.2 101.6 301.2 96.8C301.2 92 301.2 89.6 302.1 85.1L300.9 84.8C297.6 92.3 295.8 94.7 223.3 94.7C223.3 50.6 223 25.2 223.9 6.3C234.1 5.7 244.3 5.4 254.2 5.4C280.6 5.4 304 8.4 318.6 20.7L320.1 19.5C318.6 16.5 315.3 4.2 315.3 1.2H215.8C211 1.2 202.9 0.9 198.4 0L198.1 1.5C202 3.6 207.1 5.70001 207.4 14.1C208.3 33.3 208 53.4 208 99.8C208 146 208.3 166 207.4 185.2C207.1 193.9 202 196 198.1 198.1L198.4 199.3C202.9 198.4 211 198.1 215.8 198.1H325.6C325.6 194.8 333 182.2 334.5 178.6Z" fill="#130830"/>
<path d="M482.5 99.8V6.3C487 6.3 491.2 6 495.1 6C521.2 6 539.2 9 557.1 20.7L558.6 19.5C557.1 16.8 553.5 3.9 553.5 1.5H395.5C395.5 3.9 392.2 16.5 390.7 19.5L392.2 20.7C409.9 9 427.9 6 453.9 6C458.4 6 462.3 6.3 466.8 6.3V99.8V144.5C466.8 162.2 467.1 173.6 466.2 185.3C465.9 194 461.4 196.1 456.9 198.2L457.2 199.4C461.7 198.5 469.8 198.2 474.6 198.2C479.4 198.2 487.2 198.5 491.7 199.4L492 198.2C488.1 196.1 483.3 194 483 185.3C482.1 173.6 482.4 162.2 482.4 144.5V99.8H482.5Z" fill="#130830"/>
<path d="M767.1 194.2C765.6 194.5 764.4 194.8 763.8 194.8C751.8 194.8 741.3 175 729.6 153.7C717 131.5 703.2 106.6 684.6 102.7C717.3 97.9 743.9 82.3 743.9 49.9C743.9 22.6 720.5 0.400024 666 0.400024C661.2 0.400024 636 0.700026 631.5 1.30003L631.8 2.50002C636.3 2.80002 640.5 5.50003 640.8 14.2C641.7 33.1 641.4 53.2 641.4 99.6C641.4 146.7 641.7 165.5 640.8 185C640.5 193.7 635.4 195.8 631.5 197.9L631.8 199.1C636.3 198.2 644.4 197.9 649.2 197.9C653.7 197.9 661.8 198.2 666.3 199.1L666.6 197.9C662.7 195.8 657.6 193.7 657.3 185C656.4 165.8 656.7 150.5 656.7 104.1C662.7 104.4 668.7 104.1 674.7 103.8C677.1 103.8 679.5 104.4 682.2 105.3C697.8 111 705.9 131.7 714.6 152.4C724.2 176.4 733.8 200.7 751.8 200.7C758.7 200.7 762 199.8 767.7 195.9L767.1 194.2ZM669.4 98.6C664.9 98.6 660.7 98.3 656.8 98C656.8 58.4 656.5 23.4 657.4 5.40002C703.3 5.40002 727.5 16.2 727.5 50.1C727.5 78.8 711 98.6 669.4 98.6Z" fill="#130830"/>
<path d="M832.1 198.1L832.4 199.3C836.9 198.4 845 198.1 849.8 198.1C854.3 198.1 862.4 198.4 866.9 199.3L867.2 198.1C863.3 196 858.2 193.9 857.9 185.2C857 166 857.3 145.9 857.3 99.8C857.3 53.3 857 33.3 857.9 14.1C858.2 5.70001 863.3 3.6 867.2 1.5L866.9 0C862.4 0.9 854.3 1.2 849.8 1.2C845 1.2 836.9 0.9 832.4 0L832.1 1.5C836 3.6 841.1 5.70001 841.4 14.1C842.3 33.3 842 53.4 842 99.8C842 146 842.3 166 841.4 185.2C841.1 193.9 836 196 832.1 198.1Z" fill="#130830"/>
<path d="M117.1 479C151.6 479 177.9 466.4 197.1 446L198.3 434L196.5 433.1C175.8 461 154.5 473 117.1 473C67.9 473 28.4 435.8 28.4 374.7C28.4 313.6 68 276.1 117.1 276.1C150.1 276.1 180.9 286.9 195.3 317.2L197.1 316.6L195.9 299.5C177.3 280 146.7 270.1 117.1 270.1C59.3 270.1 10.1 311.2 10.1 374.7C10.1 438.2 59.2 479 117.1 479Z" fill="#130830"/>
<path d="M360.9 270C303.1 270 255.1 311.1 255.1 374.6C255.1 437.8 303.1 479.2 360.9 479.2C418.4 479.2 466.4 437.8 466.4 374.6C466.4 311.1 418.4 270 360.9 270ZM360.9 473C311.7 473 272.2 435.8 272.2 374.7C272.2 313.6 311.8 276.4 360.9 276.4C409.8 276.4 449.6 313.6 449.6 374.7C449.6 435.8 409.7 473 360.9 473Z" fill="#130830"/>
<path d="M507.2 276.3L507.5 277.5C512 277.8 516.2 280.5 516.5 289.2C517.4 308.1 517.1 328.2 517.1 374.6C517.1 421.7 517.4 440.5 516.5 460C516.2 468.7 511.1 470.8 507.2 472.9L507.5 474.1C512 473.2 520.1 472.9 524.9 472.9C529.4 472.9 537.5 473.2 542 474.1L542.3 472.9C538.4 470.8 533.3 468.7 533 460C532.1 440.8 532.4 425.5 532.4 379.1C538.4 379.4 544.4 379.1 550.4 378.8C552.8 378.8 555.2 379.4 557.9 380.3C573.5 386 581.6 406.7 590.3 427.4C599.9 451.4 609.5 475.7 627.5 475.7C634.4 475.7 637.7 474.8 643.4 470.9L642.8 469.1C641.3 469.4 640.1 469.7 639.5 469.7C627.5 469.7 617 449.9 605.3 428.6C592.7 406.4 578.9 381.5 560.3 377.6C593 372.8 619.6 357.2 619.6 324.8C619.6 297.5 596.2 275.3 541.7 275.3C536.8 275.4 511.6 275.7 507.2 276.3ZM603.1 324.9C603.1 353.7 586.6 373.5 545 373.5C540.5 373.5 536.3 373.2 532.4 372.9C532.4 333.3 532.1 298.3 533 280.3C578.8 280.2 603.1 291 603.1 324.9Z" fill="#130830"/>
<path d="M452 556.3L451.7 554.8C449.6 555.7 443.3 556 437.6 556C432.8 556.3 428.6 556 426.2 555.7C418.1 574.9 403.1 607.9 381.2 654.6C362.9 692.7 356.6 709.5 347 729.5C337.4 709.4 334.1 699.8 312.5 654.6C290.6 607.5 275.6 575.2 267.5 555.7C264.2 556 259.7 556 254.6 556C248.6 556 243.2 555.7 239.9 554.8L239.6 556.3C243.5 558.4 248.6 560.5 248.9 568.9C249.8 588.1 249.5 608.2 249.5 654.6C249.5 700.8 248.6 720.8 247.7 740C247.4 748.7 242.3 750.8 238.4 752.9L238.7 754.1C243.2 753.2 247.7 752.9 252.5 752.9C257 752.9 261.5 753.2 266 754.1L266.3 752.9C262.4 750.8 257.3 748.7 257 740C256.1 720.8 255.2 700.7 255.2 654.6C255.2 609.9 254.9 589.3 254.9 569.8C255.8 571.3 256.7 572.5 257.3 574C266.9 593.2 273.8 608.2 295.4 654.6C317.3 701.4 331.4 730.7 339.5 749.9H343.7C351.8 730.7 365.6 701.3 387.5 654.6C407.3 611.7 416.6 590.2 426.2 571C426.2 589.9 426.8 609.4 426.8 654.6C426.8 700.8 427.1 720.8 426.2 740C425.9 748.7 421.4 750.8 416.9 752.9L417.2 754.1C421.7 753.2 429.8 752.9 434.6 752.9C439.4 752.9 447.2 753.2 451.7 754.1L452 752.9C448.1 750.8 443.3 748.7 443 740C442.1 720.8 442.4 700.7 442.4 654.6C442.4 608.1 442.1 588.1 443 568.9C443.3 560.5 448.1 558.4 452 556.3Z" fill="#130830"/>
<path d="M602.7 550C544.9 550 496.9 591.1 496.9 654.6C496.9 717.8 544.9 759.2 602.7 759.2C660.2 759.2 708.2 717.8 708.2 654.6C708.2 591 660.3 550 602.7 550ZM602.7 752.9C553.5 752.9 514 715.7 514 654.6C514 593.5 553.6 556.3 602.7 556.3C651.6 556.3 691.4 593.5 691.4 654.6C691.4 715.7 651.6 752.9 602.7 752.9Z" fill="#130830"/>
<path d="M892.8 749C891.3 749.3 890.1 749.6 889.5 749.6C877.5 749.6 867 729.8 855.3 708.5C842.7 686.3 828.9 661.4 810.3 657.5C843 652.7 869.6 637.1 869.6 604.7C869.6 577.4 846.2 555.2 791.7 555.2C786.9 555.2 761.7 555.5 757.2 556.1L757.5 557.3C762 557.6 766.2 560.3 766.5 569C767.4 587.9 767.1 608 767.1 654.4C767.1 701.5 767.4 720.3 766.5 739.8C766.2 748.5 761.1 750.6 757.2 752.7L757.5 753.9C762 753 770.1 752.7 774.9 752.7C779.4 752.7 787.5 753 792 753.9L792.3 752.7C788.4 750.6 783.3 748.5 783 739.8C782.1 720.6 782.4 705.3 782.4 658.9C788.4 659.2 794.4 658.9 800.4 658.6C802.8 658.6 805.2 659.2 807.9 660.1C823.5 665.8 831.6 686.5 840.3 707.2C849.9 731.2 859.5 755.5 877.5 755.5C884.4 755.5 887.7 754.6 893.4 750.7L892.8 749ZM795.1 653.4C790.6 653.4 786.4 653.1 782.5 652.8C782.5 613.2 782.2 578.2 783.1 560.2C829 560.2 853.2 571 853.2 604.9C853.2 633.6 836.8 653.4 795.1 653.4Z" fill="#130830"/>
<path d="M193.5 735.2C183.6 715.7 177 702.2 155.4 656.7C133.5 611.1 115.8 573.7 107.7 554.5H103.5C95.4 573.7 77.4 611.1 55.5 656.7C33.9 702 25.8 718.4 16.2 737.6C11.7 745.7 6.3 750.8 0 752.9L0.299995 754.1C6 753.2 10.5 752.9 16.5 752.9C22.5 752.9 25.8 753.2 30.6 754.1L30.9 752.9C27 751.4 18.9 748.4 22.8 740C25 734.2 27.4 728.5 30.3 722.1C39.6 708.7 58.7 687.5 85.2 675.2C102.6 667.1 122 663 141.4 663.1L150.8 682.4L153.5 688.1C165.5 712.4 171.2 725.9 177.5 740C180.5 748.7 174.2 751.1 169.7 752.9L170 754.1C174.8 753.2 185 752.9 191 752.9C197 752.9 205.1 753.2 210.8 754.1L211.1 752.9C205.4 750.8 198 743.9 193.5 735.2ZM81.8 667.7C63.3 676.3 50.8 687.8 41.6 698.7C43.2 695.4 45 691.9 46.9 688.1L49.6 682.4C53.2 674.9 57.4 666.5 61.9 656.6C80.2 619.1 90.7 594.9 100.3 574.8C109.1 594.4 116.5 611.2 137 653.7C117.9 654.5 98.9 659.7 81.8 667.7Z" fill="#130830"/>
<path d="M362.1 324.8H359.4C359.4 361 348.4 372.1 312.1 372.1V374.8C348.3 374.8 359.4 385.8 359.4 422.1H362.1C362.1 385.9 373.1 374.8 409.4 374.8V372.1C373.1 372.1 362.1 361 362.1 324.8Z" fill="#130830"/>
<path d="M851 380.9C846.5 377.8 841.2 375.9 835.3 375L885 289H866.2C825.4 289 813 276.6 813 235.7C813 234.1 811.7 232.9 810.2 232.9C808.7 232.9 807.4 234.2 807.4 235.7C807.4 276.5 795 289 754.2 289H665.5L723.5 389.5C702.5 388.9 684.1 380.8 672.2 354.4L672.1 354.3C672.1 354.2 672 354.2 672 354.1L671.9 354C671.8 353.9 671.8 353.9 671.7 353.9H671.6C671.5 353.9 671.4 353.9 671.3 353.9C671.2 353.9 671.2 353.9 671.1 353.9C671 353.9 671 353.9 670.9 353.9C670.9 353.9 670.9 353.9 670.8 353.9C670.8 353.9 670.8 353.9 670.7 353.9L670.6 354C670.5 354 670.5 354.1 670.4 354.1C670.4 354.1 670.3 354.2 670.3 354.3C670.3 354.4 670.2 354.4 670.2 354.5C670.2 354.6 670.2 354.6 670.1 354.7C670.1 354.8 670.1 354.8 670.1 354.9C670.1 355 670.1 355 670.1 355.1C670.1 355.2 670.1 355.2 670.1 355.3C680.9 391 702.9 399.5 728.5 398.4L775.2 479.3L831.4 382C847.7 382.9 859.8 389.8 864.7 409.3C864.7 409.4 864.7 409.4 864.8 409.5C864.8 409.6 864.8 409.6 864.9 409.7C864.9 409.8 865 409.8 865 409.9L865.1 410C865.2 410 865.2 410.1 865.3 410.1C865.3 410.1 865.4 410.1 865.4 410.2C865.5 410.2 865.7 410.3 865.8 410.2H865.9C866 410.2 866 410.1 866.1 410.1C866.2 410.1 866.2 410 866.3 410C866.4 410 866.4 409.9 866.5 409.8C866.5 409.7 866.6 409.7 866.6 409.6C866.6 409.5 866.7 409.5 866.7 409.4C866.7 409.3 866.8 409.3 866.8 409.2C866.8 409.1 866.8 409.1 866.8 409C866.8 408.9 866.8 408.9 866.8 408.8C864.2 395.6 859.1 386.5 851 380.9ZM810.1 262.9C814.2 278.7 823.3 287.7 839.1 291.9C823.3 296 814.3 305.1 810.1 320.9C806 305.1 796.9 296.1 781.1 291.9C796.9 287.7 805.9 278.7 810.1 262.9ZM754 294.6C794.8 294.6 807.2 307 807.2 347.8C807.2 349.4 808.5 350.6 810 350.6C811.5 350.6 812.8 349.3 812.8 347.8C812.8 307 825.2 294.6 866 294.6H875L829 374.3C815 373.6 798.3 377 781.1 380.6C763.9 384.2 746.1 388.7 729.6 389.4L674.9 294.6H754ZM734.7 397.9C749.9 396.5 766 392.4 781.7 388.9C797.3 385.5 812 382.3 824.8 381.9L775.1 467.9L734.7 397.9Z" fill="#F28FC3"/>
<path d="M775.1 480.3L728.1 398.9C697.4 400 678.8 386.2 669.5 355.4V355.2C669.5 355.1 669.5 355 669.5 354.9C669.5 354.8 669.5 354.7 669.5 354.6C669.5 354.5 669.6 354.4 669.6 354.3C669.6 354.2 669.7 354.1 669.8 354C669.8 353.9 669.9 353.8 670 353.8C670.1 353.7 670.2 353.7 670.2 353.6C670.2 353.6 670.3 353.5 670.4 353.5H670.5H670.6H670.8C670.9 353.5 671 353.5 671.1 353.5C671.2 353.5 671.3 353.5 671.5 353.6C671.6 353.6 671.7 353.6 671.7 353.7C671.8 353.8 671.9 353.8 672 353.9C672 353.9 672.1 354 672.2 354C672.3 354.1 672.4 354.2 672.4 354.3C672.4 354.3 672.5 354.4 672.5 354.5C682.8 377.3 698.6 388.4 722.4 389.3L664.4 288.8H754C794.4 288.8 806.7 276.5 806.7 236.1C806.7 234.3 808.2 232.8 810.1 232.8C811.9 232.8 813.5 234.3 813.5 236.1C813.5 276.5 825.8 288.8 866.2 288.8H885.9L885.5 289.6L836.2 375C842.2 376 847.2 377.9 851.4 380.8C859.6 386.5 864.8 395.7 867.4 409C867.4 409.1 867.4 409.2 867.4 409.3C867.4 409.4 867.4 409.5 867.4 409.6C867.4 409.7 867.3 409.8 867.3 409.9C867.2 410.1 867.2 410.1 867.2 410.2C867.1 410.3 867.1 410.4 867 410.4C866.9 410.6 866.8 410.6 866.7 410.7C866.6 410.8 866.5 410.8 866.4 410.8L866.1 411H865.9C866 411 865.8 411 865.7 411C865.5 411 865.4 411 865.2 410.9L865 410.8C864.8 410.7 864.8 410.7 864.7 410.6L864.5 410.4C864.4 410.3 864.3 410.2 864.3 410.1C864.3 410 864.2 410 864.2 409.9C864.2 409.8 864.1 409.7 864.1 409.6C859.8 392.3 849.4 383.7 831.6 382.7L775.1 480.3ZM728.7 397.8L728.9 398.1L775.2 478.3L831.1 381.5H831.4C850 382.5 860.7 391.3 865.2 409.2L865.4 409.5L865.7 409.7C865.7 409.7 865.8 409.7 865.9 409.7L866.3 409.4L866.4 409.1V408.9C863.9 395.9 858.8 386.8 850.9 381.3C846.7 378.4 841.6 376.5 835.4 375.5L834.7 375.4L884.3 289.5H866.4C825.2 289.5 812.6 276.9 812.6 235.7C812.6 234.4 811.6 233.4 810.3 233.4C809 233.4 808 234.4 808 235.7C808 276.9 795.4 289.5 754.2 289.5H666.4L724.4 390H723.5C698.8 389.3 682.4 378.1 671.8 354.6C671.8 354.6 671.8 354.6 671.7 354.5L671.6 354.3L671.5 354.2H671L670.8 354.4L670.7 354.6V354.8V354.9C680 385.7 697.8 398.9 728.6 397.6L728.7 397.8ZM775.1 469L733.8 397.5L734.6 397.4C746.8 396.3 759.8 393.3 772.3 390.5C775.4 389.8 778.5 389.1 781.5 388.4C797.1 385 811.8 381.8 824.7 381.4H825.6L825.1 382.2L775.1 469ZM735.5 398.3L775.1 466.9L823.8 382.5C811.3 383 796.9 386.2 781.8 389.5C778.7 390.2 775.7 390.9 772.6 391.6C760.3 394.3 747.5 397.1 735.5 398.3ZM729.5 390L729.3 389.7L674.1 294.1H753.9C795.1 294.1 807.7 306.7 807.7 347.9C807.7 349.2 808.7 350.2 810 350.2C811.3 350.2 812.3 349.2 812.3 347.9C812.3 306.7 824.9 294.1 866.1 294.1H876L875.6 294.9L829.4 374.9H829.1C815.1 374.2 798.7 377.6 781.3 381.2C778.1 381.9 774.8 382.6 771.5 383.3C757.6 386.3 743.2 389.4 729.7 390H729.5ZM676 295.2L730.1 388.9C743.3 388.3 757.6 385.2 771.4 382.2C774.7 381.5 777.9 380.8 781.2 380.1C798.5 376.5 814.8 373.1 828.9 373.8L874.3 295.2H866.2C825.8 295.2 813.5 307.5 813.5 347.9C813.5 349.7 812 351.3 810.1 351.3C808.3 351.3 806.7 349.8 806.7 347.9C806.7 307.5 794.4 295.2 754 295.2H676ZM810.1 322.8L809.6 320.9C805.5 305.2 796.7 296.4 781 292.3L779.1 291.8L781 291.3C796.7 287.2 805.5 278.4 809.6 262.7L810.1 260.8L810.6 262.7C814.7 278.4 823.5 287.2 839.2 291.3L841.1 291.8L839.2 292.3C823.5 296.4 814.7 305.2 810.6 320.9L810.1 322.8ZM783 291.8C797.4 296 805.8 304.5 810 318.8C814.2 304.4 822.7 296 837 291.8C822.6 287.6 814.2 279.1 810 264.8C805.8 279.1 797.4 287.6 783 291.8Z" fill="#F28FC3"/>
</svg>
